# xmcd
#
# Track frame offsets:
#	150
#	19310
#	39120
#	60130
#	77472
#	96995
#	116055
#	136422
#	157332
#	177217
#	198590
#
# Disc length: 2877 seconds
#
# Revision: 3
# Processed by: cddbd v1.5.2PL0 Copyright (c) Steve Scherf et al.
# Submitted via: EasyCDDAExtractor 15.3.0.1
#
DISCID=8b0b3b0b
DTITLE=Celia Cruz - La Negra Tiene Tumbao
DYEAR=2002
DGENRE=Latin
TTITLE0=La Negra Tiene Tumbao (Album Version)
TTITLE1=Pa' Arriba No Va
TTITLE2=Hay Que Empezar Otra Vez
TTITLE3=Tararea Kumbayea
TTITLE4=Corazon De Rumba
TTITLE5=Dejenme Vivir
TTITLE6=Que Culpa Tengo Yo
TTITLE7=Mi Mercancia
TTITLE8=Taita Bilongo
TTITLE9=Sin Clave No Hay Son
TTITLE10=La Negra Tiene Tumbao (Remix Version)
EXTD=do not ignore accented letters (αινσϊ) in Spanish and other languages!
EXTT0=
EXTT1=
EXTT2=
EXTT3=
EXTT4=
EXTT5=
EXTT6=
EXTT7=
EXTT8=
EXTT9=
EXTT10=
PLAYORDER=
